<svg xmlns="http://www.w3.org/2000/svg" width="512" height="512" viewBox="0 0 512 512">
  <defs>
    <linearGradient id="g1" x1="0" y1="0" x2="1" y2="1">
      <stop offset="0%" stop-color="#F97316"/>
      <stop offset="100%" stop-color="#EF4444"/>
    </linearGradient>
    <linearGradient id="g2" x1="0" y1="0" x2="1" y2="1">
      <stop offset="0%" stop-color="#3B82F6"/>
      <stop offset="100%" stop-color="#8B5CF6"/>
    </linearGradient>
    <filter id="s" x="-20%" y="-20%" width="140%" height="140%">
      <feDropShadow dx="0" dy="8" stdDeviation="12" flood-color="#000" flood-opacity="0.2"/>
    </filter>
  </defs>
  <rect width="512" height="512" rx="96" fill="url(#g2)"/>
  <g filter="url(#s)">
    <circle cx="256" cy="256" r="124" fill="white"/>
    <path d="M256 140c48 30 80 72 80 116 0 52-42 94-94 94s-94-42-94-94c0-25 11-49 28-67-4 18 0 36 13 49 18 19 49 20 70 2 15-13 23-33 19-53 24 15 40 36 40 69 0 38-31 69-69 69s-69-31-69-69c0-49 33-88 76-116z" fill="url(#g1)"/>
  </g>
</svg>
