<svg xmlns="http://www.w3.org/2000/svg" viewBox="0 0 128 128" role="img" aria-label="Flare360 logo">
  <defs>
    <linearGradient id="g" x1="0%" y1="0%" x2="100%" y2="100%">
      <stop offset="0%" stop-color="#ff6b6b"/>
      <stop offset="100%" stop-color="#ffcc00"/>
    </linearGradient>
    <filter id="s" x="-20%" y="-20%" width="140%" height="140%">
      <feDropShadow dx="0" dy="2" stdDeviation="2" flood-color="rgba(0,0,0,0.2)"/>
    </filter>
  </defs>
  <g filter="url(#s)">
    <circle cx="64" cy="64" r="48" fill="url(#g)"/>
    <g transform="translate(64,64)">
      <path d="M0,-40 C14,-40 26,-28 26,-14 C26,-6 21,1 14,4 C10,6 8,8 8,12 C8,18 12,26 0,36 C-12,26 -8,18 -8,12 C-8,8 -10,6 -14,4 C-21,1 -26,-6 -26,-14 C-26,-28 -14,-40 0,-40 Z" fill="#fff"/>
      <circle cx="0" cy="0" r="10" fill="#1f2937" opacity="0.9"/>
    </g>
  </g>
</svg>
